<?xml version="1.0" standalone="no"?>
<!DOCTYPE svg PUBLIC "-//W3C//DTD SVG 20010904//EN"
 "http://www.w3.org/TR/2001/REC-SVG-20010904/DTD/svg10.dtd">
<svg version="1.0" xmlns="http://www.w3.org/2000/svg"
 width="512.000000pt" height="512.000000pt" viewBox="0 0 512.000000 512.000000"
 preserveAspectRatio="xMidYMid meet">
<metadata>
Created by potrace 1.14, written by Peter Selinger 2001-2017
</metadata>
<g transform="translate(0.000000,512.000000) scale(0.100000,-0.100000)"
fill="#000000" stroke="none">
<path d="M2290 4819 c-124 -11 -285 -42 -385 -75 -603 -196 -915 -754 -919
-1639 -1 -246 6 -319 49 -502 63 -267 186 -500 358 -677 l78 -81 -5 -75 c-8
-121 -29 -175 -94 -240 -55 -55 -59 -57 -122 -63 -85 -8 -143 -33 -206 -91
-131 -117 -188 -293 -150 -457 55 -240 319 -436 716 -532 114 -28 250 -52 345
-62 33 -4 71 -8 84 -10 155 -25 955 -25 1034 0 7 2 45 6 86 10 181 15 419 71
584 136 112 44 166 74 258 141 275 200 316 533 95 754 -82 81 -134 105 -244
112 -104 6 -133 21 -194 102 -28 37 -55 119 -60 185 -4 38 -1 42 102 145 152
152 248 300 324 503 100 266 133 552 106 902 -39 498 -158 834 -388 1102 -70
81 -223 201 -327 255 -151 78 -366 136 -585 156 -120 11 -415 12 -540 1z"/>
</g>
</svg>
